<?xml version="1.0" encoding="iso-8859-1"?>
<!-- Generator: Adobe Illustrator 19.0.0, SVG Export Plug-In . SVG Version: 6.00 Build 0)  -->
<svg version="1.1" id="Layer_1" xmlns="http://www.w3.org/2000/svg" xmlns:xlink="http://www.w3.org/1999/xlink" x="0px" y="0px"
	 viewBox="0 0 512 512" style="enable-background:new 0 0 512 512;" xml:space="preserve">
<path style="fill:#3E6EA6;" d="M394.408,296.322l96.69-55.824c9.29-5.363,20.901,1.34,20.901,12.067v87.513
	c0,10.727-11.611,17.43-20.901,12.067L394.408,296.322z"/>
<path style="fill:#39A3DB;" d="M408.343,296.328c-30.637,83.036-110.489,142.256-204.171,142.256S30.636,379.362,0,296.328
	c20.336-55.112,62.339-99.734,115.679-123.503c50.03-22.317,106.853-24.614,157.777-7.48
	C335.859,186.293,385.623,234.756,408.343,296.328z"/>
<path style="fill:#4881C2;" d="M273.457,165.345c-33.82-11.379-70.251-14.189-105.651-8.232v278.433
	c105.727,17.791,205.14-43.279,240.537-139.219C385.624,234.756,335.859,186.293,273.457,165.345z"/>
<g>
	<path style="fill:#3E6EA6;" d="M233.34,308.389l-65.536,37.837v-99.809l65.536,37.837
		C242.63,289.618,242.63,303.026,233.34,308.389z"/>
	<path style="fill:#3E6EA6;" d="M273.457,87.337v78.009c-50.825-17.1-107.65-14.882-157.777,7.48l135.751-96.832
		C260.654,69.413,273.457,76.007,273.457,87.337z"/>
</g>
<g>
</g>
<g>
</g>
<g>
</g>
<g>
</g>
<g>
</g>
<g>
</g>
<g>
</g>
<g>
</g>
<g>
</g>
<g>
</g>
<g>
</g>
<g>
</g>
<g>
</g>
<g>
</g>
<g>
</g>
</svg>
