<?xml version="1.0" standalone="no"?>
<svg xmlns:xlink="http://www.w3.org/1999/xlink" id="wave" style="transform:rotate(0deg); transition: 0.3s" viewBox="0 0 1440 350" version="1.1" xmlns="http://www.w3.org/2000/svg"><defs><linearGradient id="sw-gradient-0" x1="0" x2="0" y1="1" y2="0"><stop stop-color="rgba(37, 99, 235, 1)" offset="0%"/><stop stop-color="rgba(37, 99, 235, 1)" offset="100%"/></linearGradient></defs><path style="transform:translate(0, 0px); opacity:1" fill="url(#sw-gradient-0)" d="M0,35L30,40.8C60,47,120,58,180,105C240,152,300,233,360,274.2C420,315,480,315,540,291.7C600,268,660,222,720,215.8C780,210,840,245,900,227.5C960,210,1020,140,1080,145.8C1140,152,1200,233,1260,262.5C1320,292,1380,268,1440,250.8C1500,233,1560,222,1620,210C1680,198,1740,187,1800,163.3C1860,140,1920,105,1980,81.7C2040,58,2100,47,2160,40.8C2220,35,2280,35,2340,64.2C2400,93,2460,152,2520,157.5C2580,163,2640,117,2700,99.2C2760,82,2820,93,2880,116.7C2940,140,3000,175,3060,157.5C3120,140,3180,70,3240,52.5C3300,35,3360,70,3420,70C3480,70,3540,35,3600,23.3C3660,12,3720,23,3780,46.7C3840,70,3900,105,3960,140C4020,175,4080,210,4140,186.7C4200,163,4260,82,4290,40.8L4320,0L4320,350L4290,350C4260,350,4200,350,4140,350C4080,350,4020,350,3960,350C3900,350,3840,350,3780,350C3720,350,3660,350,3600,350C3540,350,3480,350,3420,350C3360,350,3300,350,3240,350C3180,350,3120,350,3060,350C3000,350,2940,350,2880,350C2820,350,2760,350,2700,350C2640,350,2580,350,2520,350C2460,350,2400,350,2340,350C2280,350,2220,350,2160,350C2100,350,2040,350,1980,350C1920,350,1860,350,1800,350C1740,350,1680,350,1620,350C1560,350,1500,350,1440,350C1380,350,1320,350,1260,350C1200,350,1140,350,1080,350C1020,350,960,350,900,350C840,350,780,350,720,350C660,350,600,350,540,350C480,350,420,350,360,350C300,350,240,350,180,350C120,350,60,350,30,350L0,350Z"/><defs><linearGradient id="sw-gradient-1" x1="0" x2="0" y1="1" y2="0"><stop stop-color="rgba(37, 99, 235, 1)" offset="0%"/><stop stop-color="rgba(37, 99, 235, 1)" offset="100%"/></linearGradient></defs><path style="transform:translate(0, 50px); opacity:0.9" fill="url(#sw-gradient-1)" d="M0,245L30,250.8C60,257,120,268,180,250.8C240,233,300,187,360,186.7C420,187,480,233,540,221.7C600,210,660,140,720,145.8C780,152,840,233,900,239.2C960,245,1020,175,1080,128.3C1140,82,1200,58,1260,70C1320,82,1380,128,1440,145.8C1500,163,1560,152,1620,145.8C1680,140,1740,140,1800,163.3C1860,187,1920,233,1980,262.5C2040,292,2100,303,2160,309.2C2220,315,2280,315,2340,268.3C2400,222,2460,128,2520,75.8C2580,23,2640,12,2700,52.5C2760,93,2820,187,2880,227.5C2940,268,3000,257,3060,245C3120,233,3180,222,3240,180.8C3300,140,3360,70,3420,46.7C3480,23,3540,47,3600,99.2C3660,152,3720,233,3780,256.7C3840,280,3900,245,3960,245C4020,245,4080,280,4140,256.7C4200,233,4260,152,4290,110.8L4320,70L4320,350L4290,350C4260,350,4200,350,4140,350C4080,350,4020,350,3960,350C3900,350,3840,350,3780,350C3720,350,3660,350,3600,350C3540,350,3480,350,3420,350C3360,350,3300,350,3240,350C3180,350,3120,350,3060,350C3000,350,2940,350,2880,350C2820,350,2760,350,2700,350C2640,350,2580,350,2520,350C2460,350,2400,350,2340,350C2280,350,2220,350,2160,350C2100,350,2040,350,1980,350C1920,350,1860,350,1800,350C1740,350,1680,350,1620,350C1560,350,1500,350,1440,350C1380,350,1320,350,1260,350C1200,350,1140,350,1080,350C1020,350,960,350,900,350C840,350,780,350,720,350C660,350,600,350,540,350C480,350,420,350,360,350C300,350,240,350,180,350C120,350,60,350,30,350L0,350Z"/><defs><linearGradient id="sw-gradient-2" x1="0" x2="0" y1="1" y2="0"><stop stop-color="rgba(37, 99, 235, 1)" offset="0%"/><stop stop-color="rgba(37, 99, 235, 1)" offset="100%"/></linearGradient></defs><path style="transform:translate(0, 100px); opacity:0.8" fill="url(#sw-gradient-2)" d="M0,70L30,81.7C60,93,120,117,180,145.8C240,175,300,210,360,204.2C420,198,480,152,540,157.5C600,163,660,222,720,245C780,268,840,257,900,245C960,233,1020,222,1080,227.5C1140,233,1200,257,1260,268.3C1320,280,1380,280,1440,245C1500,210,1560,140,1620,93.3C1680,47,1740,23,1800,23.3C1860,23,1920,47,1980,46.7C2040,47,2100,23,2160,40.8C2220,58,2280,117,2340,157.5C2400,198,2460,222,2520,227.5C2580,233,2640,222,2700,215.8C2760,210,2820,210,2880,221.7C2940,233,3000,257,3060,268.3C3120,280,3180,280,3240,262.5C3300,245,3360,210,3420,198.3C3480,187,3540,198,3600,204.2C3660,210,3720,210,3780,204.2C3840,198,3900,187,3960,163.3C4020,140,4080,105,4140,116.7C4200,128,4260,187,4290,215.8L4320,245L4320,350L4290,350C4260,350,4200,350,4140,350C4080,350,4020,350,3960,350C3900,350,3840,350,3780,350C3720,350,3660,350,3600,350C3540,350,3480,350,3420,350C3360,350,3300,350,3240,350C3180,350,3120,350,3060,350C3000,350,2940,350,2880,350C2820,350,2760,350,2700,350C2640,350,2580,350,2520,350C2460,350,2400,350,2340,350C2280,350,2220,350,2160,350C2100,350,2040,350,1980,350C1920,350,1860,350,1800,350C1740,350,1680,350,1620,350C1560,350,1500,350,1440,350C1380,350,1320,350,1260,350C1200,350,1140,350,1080,350C1020,350,960,350,900,350C840,350,780,350,720,350C660,350,600,350,540,350C480,350,420,350,360,350C300,350,240,350,180,350C120,350,60,350,30,350L0,350Z"/></svg>